<?xml version="1.0" encoding="UTF-8"?>
<svg width="24px" height="24px" viewBox="0 0 24 24" version="1.1" xmlns="http://www.w3.org/2000/svg" xmlns:xlink="http://www.w3.org/1999/xlink">
    <!-- Generator: Sketch 54 (76480) - https://sketchapp.com -->
    <title>画板</title>
    <desc>Created with Sketch.</desc>
    <defs>
        <path d="M2.84217094e-14,11.9999868 C2.84217094e-14,18.6273965 5.37257709,23.9999736 11.9999868,23.9999736 C18.6273965,23.9999736 23.9999736,18.6273965 23.9999736,11.9999868 C23.9999736,5.37257709 18.6273965,2.84217094e-14 11.9999868,2.84217094e-14 C5.37257709,2.84217094e-14 2.84217094e-14,5.37257709 2.84217094e-14,11.9999868 Z" id="path-1"></path>
        <path d="M2.84217094e-14,11.9999868 C2.84217094e-14,18.6273965 5.37257709,23.9999736 11.9999868,23.9999736 C18.6273965,23.9999736 23.9999736,18.6273965 23.9999736,11.9999868 C23.9999736,5.37257709 18.6273965,2.84217094e-14 11.9999868,2.84217094e-14 C5.37257709,2.84217094e-14 2.84217094e-14,5.37257709 2.84217094e-14,11.9999868 Z" id="path-3"></path>
    </defs>
    <g id="页面1" stroke="none" stroke-width="1" fill="none" fill-rule="evenodd">
        <g id="画板">
            <g id="蒙版" fill="#EDEEF0" fill-rule="nonzero">
                <path d="M2.84217094e-14,11.9999868 C2.84217094e-14,18.6273965 5.37257709,23.9999736 11.9999868,23.9999736 C18.6273965,23.9999736 23.9999736,18.6273965 23.9999736,11.9999868 C23.9999736,5.37257709 18.6273965,2.84217094e-14 11.9999868,2.84217094e-14 C5.37257709,2.84217094e-14 2.84217094e-14,5.37257709 2.84217094e-14,11.9999868 Z" id="path-1"></path>
            </g>
            <g id="编组-Clipped">
                <mask id="mask-2" fill="white">
                    <use xlink:href="#path-1"></use>
                </mask>
                <g id="path-1"></g>
                <g id="编组" mask="url(#mask-2)">
                    <g transform="translate(3.771429, 3.085714)" id="路径">
                        <g transform="translate(0.289847, 0.129082)">
                            <path d="M7.93871129,14.3051843 C11.0776678,14.3051843 13.9036647,15.6441428 15.8769425,17.7823005 C15.444703,18.4415797 12.1516666,20.7940571 7.96367126,20.7852022 C3.77567589,20.7762972 0.277439695,18.2800599 8.17124146e-14,17.7827805 C1.97327784,15.6443828 4.79951472,14.3051843 7.93871129,14.3051843 Z" fill="#8E94B4" fill-rule="nonzero"></path>
                            <path d="M7.93871129,11.1851877 C8.99909685,11.1851877 9.85870917,12.0448 9.85870917,13.1051856 L9.85870917,15.0251835 C9.85870917,16.085569 8.99909685,16.9451814 7.93871129,16.9451814 C6.87832574,16.9451814 6.01871338,16.085569 6.01871338,15.0251835 L6.01871338,13.1051856 C6.01871338,12.0448 6.87832574,11.1851877 7.93871129,11.1851877 L7.93871129,11.1851877 Z" fill="#C7CCD6" fill-rule="nonzero"></path>
                            <path d="M2.17871761,8.78519033 L2.17871761,4.14767544 C2.17871761,2.86103686 3.48071619,1.58519827 4.79351472,1.58519827 L11.0839078,1.58519827 C12.3967064,1.58519827 13.6987049,2.86103686 13.6987049,4.14767544 L13.6987049,8.78519033 L2.17871761,8.78519033 Z" fill="#8E94B4" fill-rule="nonzero"></path>
                            <path d="M1.21871866,9.26518982 C1.21871866,10.1930272 1.97087945,10.945188 2.89871681,10.945188 C3.82655417,10.945188 4.57871496,10.1930272 4.57871496,9.26518982 C4.57871496,8.33735246 3.82655417,7.58519167 2.89871681,7.58519167 C1.97087945,7.58519167 1.21871866,8.33735246 1.21871866,9.26518982 L1.21871866,9.26518982 Z" fill="#C7CCD6" fill-rule="nonzero"></path>
                            <path d="M11.2987076,9.26518982 C11.2987076,10.1930272 12.0508684,10.945188 12.9787057,10.945188 C13.9065431,10.945188 14.6587039,10.1930272 14.6587039,9.26518982 C14.6587039,8.33735246 13.9065431,7.58519167 12.9787057,7.58519167 C12.0508684,7.58519167 11.2987076,8.33735246 11.2987076,9.26518982 Z" fill="#C7CCD6" fill-rule="nonzero"></path>
                            <path d="M7.93847129,3.26519641 C10.5895084,3.26519641 12.738466,5.41415403 12.738466,8.06519115 L12.738466,9.98518899 C12.738466,12.6362261 10.5895084,14.7851837 7.93847129,14.7851837 C5.28743417,14.7851837 3.13847655,12.6362261 3.13847655,9.98518899 L3.13847655,8.06519115 C3.13847655,5.41415403 5.28767417,3.26519641 7.93847129,3.26519641 Z" fill="#FFFFFF" fill-rule="nonzero"></path>
                            <path d="M4.4613551,4.75631479 L4.4613551,8.77535033 C4.4613551,11.2065477 5.59847386,13.3000654 7.6617516,14.7849437 C6.51359287,14.7849437 5.16167434,14.1657444 4.2686353,13.0675056 C3.56927609,12.2073466 3.13871655,11.4700674 3.13871655,9.7300693 C3.13871655,9.19870989 3.11735658,8.12327105 3.15335653,7.69367153 C3.31847635,5.71007373 4.4613551,4.75631479 4.4613551,4.75631479 L4.4613551,4.75631479 Z" fill="#EDEEF0" fill-rule="nonzero"></path>
                            <path d="M7.93871129,4.35575523 C9.84646917,4.35575523 11.3932675,3.49223619 11.3932675,2.42711733 L11.3932675,5.06261699e-14 C9.80086923,0.332399649 8.64935047,0.498719462 7.93871129,0.498719462 C6.03095338,0.498719462 4.48415506,1.3622385 4.48415506,2.42735733 C4.48415506,3.49247616 6.03095338,4.35575523 7.93871129,4.35575523 Z" fill="#8E94B4" fill-rule="nonzero"></path>
                        </g>
                    </g>
                </g>
            </g>
            <g id="路径-Clipped">
                <mask id="mask-4" fill="white">
                    <use xlink:href="#path-3"></use>
                </mask>
                <g id="path-1"></g>
                <path d="M0.685714286,11.9999868 C0.685714286,18.248687 5.75128663,23.3142593 11.9999868,23.3142593 C18.248687,23.3142593 23.3142593,18.248687 23.3142593,11.9999868 C23.3142593,5.75128663 18.248687,0.685714286 11.9999868,0.685714286 C5.75128663,0.685714286 0.685714286,5.75128663 0.685714286,11.9999868 Z" id="路径" stroke="#EDEEF0" stroke-width="1.37142857" mask="url(#mask-4)"></path>
            </g>
        </g>
    </g>
</svg>