<?xml version="1.0" encoding="UTF-8"?>
<svg width="32px" height="32px" viewBox="0 0 32 32" version="1.1" xmlns="http://www.w3.org/2000/svg" xmlns:xlink="http://www.w3.org/1999/xlink">
    <!-- Generator: Sketch 54 (76480) - https://sketchapp.com -->
    <title>icon/error_solid/blue</title>
    <desc>Created with Sketch.</desc>
    <g id="页面1" stroke="none" stroke-width="1" fill="none" fill-rule="evenodd">
        <g id="报价单详情" transform="translate(-33.000000, -608.000000)" fill-rule="nonzero">
            <g id="编组" transform="translate(0.000000, 581.000000)">
                <g id="icon/error_solid/blue" transform="translate(32.000000, 26.000000)">
                    <g id="error">
                        <rect id="Rectangle" x="0" y="0" width="34" height="34"></rect>
                        <path d="M17,32.5833333 C8.39356265,32.5833333 1.41666667,25.6064374 1.41666667,17 C1.41666667,8.39356265 8.39356265,1.41666667 17,1.41666667 C25.6064374,1.41666667 32.5833333,8.39356265 32.5833333,17 C32.5833333,25.6064374 25.6064374,32.5833333 17,32.5833333 Z M17,19.1794872 L21.9038462,24.0833333 L24.0833333,21.9038462 L19.1794872,17 L24.0833333,12.0961538 L21.9038462,9.91666667 L17,14.8205128 L12.0961538,9.91666667 L9.91666667,12.0961538 L14.8205128,17 L9.91666667,21.9038462 L12.0961538,24.0833333 L17,19.1794872 Z" id="形状结合" fill="#FF5046"></path>
                    </g>
                </g>
            </g>
        </g>
    </g>
</svg>